<mxfile host="Electron" modified="2023-11-15T19:36:28.410Z" agent="Mozilla/5.0 (X11; Linux x86_64) AppleWebKit/537.36 (KHTML, like Gecko) draw.io/22.0.3 Chrome/114.0.5735.289 Electron/25.8.4 Safari/537.36" etag="IFJ8yWaWiJVi3FneP-dO" version="22.0.3" type="device">
  <diagram name="Dual_WAN" id="AtXBKKNLV4wXi2IzrfjZ">
    <mxGraphModel dx="1754" dy="1000" grid="0" gridSize="10" guides="1" tooltips="1" connect="1" arrows="1" fold="1" page="0" pageScale="1" pageWidth="850" pageHeight="1100" background="#114B5F" math="0" shadow="0">
      <root>
        <mxCell id="q8S1K55E-IMh0eGZBYdg-0" />
        <mxCell id="q8S1K55E-IMh0eGZBYdg-1" parent="q8S1K55E-IMh0eGZBYdg-0" />
        <mxCell id="q8S1K55E-IMh0eGZBYdg-2" value="" style="ellipse;shape=cloud;whiteSpace=wrap;html=1;hachureGap=4;fillColor=#1ba1e2;fontColor=#ffffff;strokeColor=#006EAF;" parent="q8S1K55E-IMh0eGZBYdg-1" vertex="1">
          <mxGeometry x="302" y="-154" width="341" height="219" as="geometry" />
        </mxCell>
        <mxCell id="q8S1K55E-IMh0eGZBYdg-4" value="" style="group" parent="q8S1K55E-IMh0eGZBYdg-1" vertex="1" connectable="0">
          <mxGeometry x="-545" y="143" width="428" height="107" as="geometry" />
        </mxCell>
        <mxCell id="q8S1K55E-IMh0eGZBYdg-5" value="" style="aspect=fixed;perimeter=ellipsePerimeter;html=1;align=center;fontSize=12;verticalAlign=top;shadow=0;dashed=0;image;image=img/lib/cumulus/switch_bare_metal_empty.svg;rounded=0;sketch=0;hachureGap=4;fillColor=#F45B69;strokeColor=#028090;fontColor=#E4FDE1;labelBackgroundColor=#114B5F;connectable=0;" parent="q8S1K55E-IMh0eGZBYdg-4" vertex="1">
          <mxGeometry width="428" height="107" as="geometry" />
        </mxCell>
        <mxCell id="q8S1K55E-IMh0eGZBYdg-6" value="" style="shape=image;imageAspect=0;aspect=fixed;verticalLabelPosition=bottom;verticalAlign=top;rounded=0;labelBackgroundColor=none;sketch=0;hachureGap=4;fontSize=30;fontColor=#1A1A1A;strokeColor=#028090;fillColor=#F45B69;image=https://upload.wikimedia.org/wikipedia/commons/thumb/b/b9/PfSense_logo.png/1200px-PfSense_logo.png;" parent="q8S1K55E-IMh0eGZBYdg-4" vertex="1">
          <mxGeometry x="40" y="26" width="186.93" height="55" as="geometry" />
        </mxCell>
        <mxCell id="q8S1K55E-IMh0eGZBYdg-7" value="WAN" style="text;strokeColor=none;fillColor=none;html=1;align=center;verticalAlign=middle;whiteSpace=wrap;rounded=0;hachureGap=4;fontColor=#FF0000;fontStyle=1" parent="q8S1K55E-IMh0eGZBYdg-4" vertex="1">
          <mxGeometry x="245" y="54" width="60" height="30" as="geometry" />
        </mxCell>
        <mxCell id="q8S1K55E-IMh0eGZBYdg-8" value="&lt;font color=&quot;#ff0808&quot;&gt;WAN2&lt;/font&gt;" style="text;strokeColor=none;fillColor=none;html=1;align=center;verticalAlign=middle;whiteSpace=wrap;rounded=0;hachureGap=4;fontColor=#0000FF;fontStyle=1" parent="q8S1K55E-IMh0eGZBYdg-4" vertex="1">
          <mxGeometry x="291" y="54" width="60" height="30" as="geometry" />
        </mxCell>
        <mxCell id="q8S1K55E-IMh0eGZBYdg-9" value="LAN" style="text;strokeColor=none;fillColor=none;html=1;align=center;verticalAlign=middle;whiteSpace=wrap;rounded=0;hachureGap=4;fontColor=#00CC00;fontStyle=1" parent="q8S1K55E-IMh0eGZBYdg-4" vertex="1">
          <mxGeometry x="336" y="54" width="60" height="30" as="geometry" />
        </mxCell>
        <mxCell id="_miWQsNY7qYzJ5MoWgI8-1" style="edgeStyle=none;shape=connector;curved=1;rounded=0;comic=0;orthogonalLoop=1;jettySize=auto;html=1;labelBackgroundColor=default;strokeColor=#FF0000;strokeWidth=3;fontFamily=Helvetica;fontSize=11;fontColor=#05F034;endArrow=none;endFill=0;startSize=14;endSize=14;sourcePerimeterSpacing=8;targetPerimeterSpacing=8;fillColor=#bac8d3;" parent="q8S1K55E-IMh0eGZBYdg-1" source="_miWQsNY7qYzJ5MoWgI8-0" edge="1">
          <mxGeometry relative="1" as="geometry">
            <Array as="points">
              <mxPoint x="191" y="-83" />
            </Array>
            <mxPoint x="388" y="-55.0083620506623" as="targetPoint" />
          </mxGeometry>
        </mxCell>
        <mxCell id="_miWQsNY7qYzJ5MoWgI8-2" style="edgeStyle=none;shape=connector;curved=1;rounded=0;comic=0;orthogonalLoop=1;jettySize=auto;html=1;entryX=0.5;entryY=0;entryDx=0;entryDy=0;labelBackgroundColor=default;strokeColor=#FF0000;strokeWidth=3;fontFamily=Helvetica;fontSize=11;fontColor=#05F034;endArrow=none;endFill=0;startSize=14;endSize=14;sourcePerimeterSpacing=8;targetPerimeterSpacing=8;fillColor=#bac8d3;" parent="q8S1K55E-IMh0eGZBYdg-1" source="_miWQsNY7qYzJ5MoWgI8-0" target="q8S1K55E-IMh0eGZBYdg-7" edge="1">
          <mxGeometry relative="1" as="geometry">
            <Array as="points">
              <mxPoint x="-311" y="96" />
            </Array>
          </mxGeometry>
        </mxCell>
        <mxCell id="_miWQsNY7qYzJ5MoWgI8-0" value="&lt;font style=&quot;font-size: 23px&quot;&gt;ISP One&lt;/font&gt;" style="shape=mxgraph.cisco.modems_and_phones.cable_modem;html=1;pointerEvents=1;dashed=0;fillColor=#036897;strokeColor=#ffffff;strokeWidth=2;verticalLabelPosition=bottom;verticalAlign=top;align=center;outlineConnect=0;" parent="q8S1K55E-IMh0eGZBYdg-1" vertex="1">
          <mxGeometry x="-158" y="-58" width="112" height="64" as="geometry" />
        </mxCell>
        <mxCell id="_miWQsNY7qYzJ5MoWgI8-4" style="edgeStyle=none;shape=connector;curved=1;rounded=0;comic=0;orthogonalLoop=1;jettySize=auto;html=1;entryX=0.4;entryY=-0.033;entryDx=0;entryDy=0;entryPerimeter=0;labelBackgroundColor=default;strokeColor=#FF0000;strokeWidth=3;fontFamily=Helvetica;fontSize=11;fontColor=#05F034;endArrow=none;endFill=0;startSize=14;endSize=14;sourcePerimeterSpacing=8;targetPerimeterSpacing=8;fillColor=#bac8d3;" parent="q8S1K55E-IMh0eGZBYdg-1" source="_miWQsNY7qYzJ5MoWgI8-3" target="q8S1K55E-IMh0eGZBYdg-8" edge="1">
          <mxGeometry relative="1" as="geometry">
            <Array as="points">
              <mxPoint x="-168" y="99" />
            </Array>
          </mxGeometry>
        </mxCell>
        <mxCell id="_miWQsNY7qYzJ5MoWgI8-5" style="edgeStyle=none;shape=connector;curved=1;rounded=0;comic=0;orthogonalLoop=1;jettySize=auto;html=1;labelBackgroundColor=default;strokeColor=#FF0000;strokeWidth=3;fontFamily=Helvetica;fontSize=11;fontColor=#05F034;endArrow=none;endFill=0;startSize=14;endSize=14;sourcePerimeterSpacing=8;targetPerimeterSpacing=8;fillColor=#bac8d3;" parent="q8S1K55E-IMh0eGZBYdg-1" source="_miWQsNY7qYzJ5MoWgI8-3" edge="1">
          <mxGeometry relative="1" as="geometry">
            <Array as="points">
              <mxPoint x="208" y="-30" />
            </Array>
            <mxPoint x="388" y="-35.913987791592376" as="targetPoint" />
          </mxGeometry>
        </mxCell>
        <mxCell id="_miWQsNY7qYzJ5MoWgI8-3" value="&lt;font style=&quot;font-size: 23px&quot;&gt;ISP Two&lt;/font&gt;" style="shape=mxgraph.cisco.modems_and_phones.cable_modem;html=1;pointerEvents=1;dashed=0;fillColor=#036897;strokeColor=#ffffff;strokeWidth=2;verticalLabelPosition=bottom;verticalAlign=top;align=center;outlineConnect=0;" parent="q8S1K55E-IMh0eGZBYdg-1" vertex="1">
          <mxGeometry x="-46" y="31" width="112" height="64" as="geometry" />
        </mxCell>
        <mxCell id="V_pQVWOrU5EjajurrMMU-2" style="edgeStyle=none;shape=connector;curved=1;rounded=0;comic=0;orthogonalLoop=1;jettySize=auto;html=1;labelBackgroundColor=default;strokeColor=#00FF00;strokeWidth=3;fontFamily=Helvetica;fontSize=33;fontColor=#FFFFFF;endArrow=none;endFill=0;startSize=14;endSize=14;sourcePerimeterSpacing=8;targetPerimeterSpacing=8;fillColor=#008a00;entryX=0.5;entryY=0;entryDx=0;entryDy=0;" parent="q8S1K55E-IMh0eGZBYdg-1" source="V_pQVWOrU5EjajurrMMU-1" target="q8S1K55E-IMh0eGZBYdg-9" edge="1">
          <mxGeometry relative="1" as="geometry">
            <Array as="points">
              <mxPoint x="178" y="336" />
            </Array>
          </mxGeometry>
        </mxCell>
        <mxCell id="V_pQVWOrU5EjajurrMMU-1" value="&lt;font style=&quot;font-size: 33px;&quot; color=&quot;#ffffff&quot;&gt;172.16.16.41&lt;/font&gt;" style="fontColor=#0066CC;verticalAlign=top;verticalLabelPosition=bottom;labelPosition=center;align=center;html=1;outlineConnect=0;fillColor=#CCCCCC;strokeColor=#6881B3;gradientColor=none;gradientDirection=north;strokeWidth=2;shape=mxgraph.networks.pc;fontFamily=Helvetica;fontSize=11;" parent="q8S1K55E-IMh0eGZBYdg-1" vertex="1">
          <mxGeometry x="-13" y="409" width="181" height="138" as="geometry" />
        </mxCell>
        <mxCell id="V_pQVWOrU5EjajurrMMU-5" style="edgeStyle=none;shape=connector;curved=1;rounded=0;comic=0;orthogonalLoop=1;jettySize=auto;html=1;labelBackgroundColor=default;strokeColor=#FF0000;strokeWidth=3;fontFamily=Helvetica;fontSize=33;fontColor=#FFFFFF;endArrow=none;endFill=0;startSize=14;endSize=14;sourcePerimeterSpacing=8;targetPerimeterSpacing=8;fillColor=#bac8d3;" parent="q8S1K55E-IMh0eGZBYdg-1" source="V_pQVWOrU5EjajurrMMU-4" edge="1">
          <mxGeometry relative="1" as="geometry">
            <Array as="points">
              <mxPoint x="587" y="75" />
            </Array>
            <mxPoint x="561.1029257641922" y="42" as="targetPoint" />
          </mxGeometry>
        </mxCell>
        <mxCell id="V_pQVWOrU5EjajurrMMU-4" value="&lt;div&gt;&lt;b&gt;&lt;font color=&quot;#ffffff&quot;&gt;ipinfo.io&lt;br&gt;34.117.59.81&lt;/font&gt;&lt;/b&gt;&lt;br&gt;&lt;/div&gt;" style="fontColor=#0066CC;verticalAlign=top;verticalLabelPosition=bottom;labelPosition=center;align=center;html=1;outlineConnect=0;fillColor=#CCCCCC;strokeColor=#6881B3;gradientColor=none;gradientDirection=north;strokeWidth=2;shape=mxgraph.networks.proxy_server;fontFamily=Helvetica;fontSize=33;" parent="q8S1K55E-IMh0eGZBYdg-1" vertex="1">
          <mxGeometry x="501" y="160" width="105" height="105" as="geometry" />
        </mxCell>
      </root>
    </mxGraphModel>
  </diagram>
</mxfile>
